# xmcd CD database file
#
# Track frame offsets:
#	150
#	18003
#	39315
#	56597
#	60243
#	85748
#	104301
#	111287
#	126096
#	128610
#	148222
#	168611
#	188209
#	206623
#	227430
#	230394
#	248181
#
# Disc length: 3606 seconds
#
# Revision: 2
# Processed by: cddbd v1.5.1PL0 Copyright (c) Steve Scherf et al.
# Submitted via: CDex 1.51
#
DISCID=dc0e1411
DTITLE=Rilke Project - Bis an alle Sterne
DYEAR=2004
DGENRE=New Age
TTITLE0=Die welt die monden ist - Nina Hagen
TTITLE1=Aufgang oder Untergang - Mario Adorf
TTITLE2=Die Dinge singen hör ich so gern - Xavier Naidoo
TTITLE3=Du mußt das Leben nicht verstehen - Hannelore Elsner
TTITLE4=Liebes Lied - Rudolph Moshammer
TTITLE5=Menschen bei Nacht - Peter Maffay
TTITLE6=Der Tod der geliebten - Christiane Paul
TTITLE7=Der Panther - Otto Sander
TTITLE8=Abschied - Christa Fast
TTITLE9=Lied (Du nur, Du - Ben Becker
TTITLE10=Zum Einschlafen zu sagen - Friedrich von Thun
TTITLE11=Die Liebende - Hannelore Elsner
TTITLE12=Gib mir Liebe - Ben Becker
TTITLE13=Wie das Gestirn - Nina Hagen
TTITLE14=Für Hans Carossa - Friedrich von Thun
TTITLE15=Die Welt steht auf mit euch - Otto Sander
TTITLE16=Ich lebe mein Leben - Mario Adorf and Montserrat Caballe´
EXTD=YEAR: 2004
EXTT0=
EXTT1=
EXTT2=
EXTT3=
EXTT4=
EXTT5=
EXTT6=
EXTT7=
EXTT8=
EXTT9=
EXTT10=
EXTT11=
EXTT12=
EXTT13=
EXTT14=
EXTT15=
EXTT16=
PLAYORDER=
